<svg xmlns="http://www.w3.org/2000/svg" width="31" height="30" fill="none" viewBox="0 0 31 30">
  <path fill="#535353" d="M15.5 29.375c8.204 0 14.854-6.436 14.854-14.375C30.354 7.06 23.704.625 15.5.625 7.296.625.646 7.061.646 15c0 7.94 6.65 14.375 14.854 14.375z"/>
  <path fill="#E40000" d="M22.475 20c.904 0 1.808-.75 1.808-1.625V10c0-.875-.775-1.625-1.808-1.625H8.525c-1.033 0-1.808.75-1.808 1.625v8.25c0 .875.775 1.625 1.808 1.625H5.038V21.5h20.924V20h-3.487zM8.525 10h13.95v8.25H8.525V10z"/>
</svg>
