<svg xmlns="http://www.w3.org/2000/svg" width="59" height="59" fill="none" viewBox="0 0 59 59">
  <path fill="#7B0000" d="M29.167 0C13.067 0 0 13.067 0 29.167s13.067 29.166 29.167 29.166 29.166-13.066 29.166-29.166S45.267 0 29.167 0zm0 8.75a8.738 8.738 0 018.75 8.75 8.738 8.738 0 01-8.75 8.75 8.738 8.738 0 01-8.75-8.75 8.738 8.738 0 018.75-8.75zm0 41.417c-7.292 0-13.738-3.734-17.5-9.392.087-5.804 11.666-8.983 17.5-8.983 5.804 0 17.412 3.179 17.5 8.983-3.763 5.658-10.209 9.392-17.5 9.392z"/>
</svg>
